<svg xmlns="http://www.w3.org/2000/svg" width="256" height="256"><defs><linearGradient id="a" x1="0%" x2="100%" y1="0%" y2="100%"><stop offset="0%" stop-color="#4F46E5"/><stop offset="100%" stop-color="#8B5CF6"/></linearGradient></defs><rect width="100%" height="100%" fill="url(#a)" rx="12"/><svg xmlns="http://www.w3.org/2000/svg" width="179.2" height="179.2" fill="none" stroke="#FFF" stroke-linecap="round" stroke-linejoin="round" stroke-width="1.5" aria-hidden="true" class="lucide lucide-cake text-white" style="transform:translate(38.400000000000006px,38.400000000000006px)" viewBox="0 0 24 24"><path d="M20 21v-8a2 2 0 0 0-2-2H6a2 2 0 0 0-2 2v8"/><path d="M4 16s.5-1 2-1 2.5 2 4 2 2.5-2 4-2 2.5 2 4 2 2-1 2-1M2 21h20M7 8v3m5-3v3m5-3v3M7 4h.01M12 4h.01M17 4h.01"/></svg></svg>